<?xml version="1.0" standalone="no"?>
<svg xmlns="http://www.w3.org/2000/svg" viewBox="0 0 80.744 36" width="80.744" height="36"><g fill="#8f224e" color="#8f224e" transform="translate(0 6) scale(0.48)"><svg width="30.0" height="50.0" x="0.0" y="0.0" viewBox="0 0 30 50"><path fill="currentColor" fill-rule="nonzero" d="M.06.89v33.38h.02l14.83 14.84.09-.09.09.09 14.83-14.84h.02V.89H.06zm27.8 32.5L15 46.25 2.14 33.39v-7.17l12.77 12.77.09-.09.09.09 12.77-12.77v7.17zm0-10.11L15 36.13 2.14 23.28v-7.26L13.53 27.4 15 28.88l1.47-1.47 11.38-11.38v7.25h.01zM15 25.93l-3.24-3.24V2.97h6.48v19.72L15 25.93zM9.68 2.97V20.6l-7.53-7.53V2.97h7.53zm18.18 10.1l-7.53 7.53V2.97h7.53v10.1z"></path></svg></g><path fill="#e1f425" fill-rule="nonzero" d="M15.65 1.54L15.65 1.54Q15.72 1.94 15.76 2.10Q15.79 2.26 15.79 2.52L15.79 2.52Q15.79 3.31 15.44 4.00Q15.10 4.68 14.50 4.97L14.50 4.97Q14.02 4.32 13.32 3.85Q12.62 3.38 11.80 3.08Q10.97 2.78 10.08 2.64Q9.19 2.50 8.35 2.50L8.35 2.50Q7.51 2.50 6.78 2.63Q6.05 2.76 5.48 2.99Q4.92 3.22 4.60 3.55Q4.27 3.89 4.27 4.32L4.27 4.32Q4.34 4.85 4.92 5.39Q5.50 5.93 6.34 6.44Q7.18 6.96 8.20 7.46Q9.22 7.97 10.20 8.42L10.20 8.42Q11.42 9 12.31 9.49Q13.20 9.98 13.78 10.57Q14.35 11.16 14.64 11.90Q14.93 12.65 14.93 13.70L14.93 13.70Q14.93 14.93 14.52 16.00Q14.11 17.06 13.33 17.86Q12.55 18.65 11.45 19.09Q10.34 19.54 8.98 19.54L8.98 19.54Q7.63 19.54 6.07 19.13Q4.51 18.72 3.16 18.01Q1.80 17.30 0.90 16.38Q0 15.46 0 14.42L0 14.42Q0 13.94 0.28 13.20Q0.55 12.46 1.27 11.64L1.27 11.64Q1.34 12.36 2.05 13.34Q2.76 14.33 4.18 15.17L4.18 15.17Q5.50 15.94 6.90 16.28Q8.30 16.63 9.53 16.63L9.53 16.63Q10.87 16.63 11.71 16.30Q12.55 15.96 13.03 15.49Q13.51 15.02 13.70 14.54Q13.90 14.06 13.92 13.78L13.92 13.78Q13.90 13.30 13.48 12.85Q13.06 12.41 12.35 11.99Q11.64 11.57 10.70 11.14Q9.77 10.70 8.76 10.27L8.76 10.27Q7.25 9.60 6.16 9.01Q5.06 8.42 4.36 7.81Q3.65 7.20 3.32 6.53Q3.00 5.86 3.00 4.99L3.00 4.99Q3.00 3.65 3.82 2.45Q4.63 1.25 6.17 0.62L6.17 0.62Q6.94 0.29 7.81 0.14Q8.69 0 9.53 0L9.53 0Q11.11 0 12.62 0.43Q14.14 0.86 15.65 1.54ZM17.42 18.62L17.42 18.62Q17.04 18.58 16.62 18.30Q16.20 18.02 16.08 17.69L16.08 17.69Q16.08 17.40 16.16 16.94Q16.25 16.49 16.37 16.02Q16.49 15.55 16.61 15.13Q16.73 14.71 16.78 14.50L16.78 14.50Q17.06 14.50 17.51 14.64Q17.95 14.78 18.42 15.04Q18.89 15.29 19.31 15.61Q19.73 15.94 19.94 16.27L19.94 16.27Q19.73 16.75 19.39 17.18Q19.06 17.62 18.68 17.94Q18.31 18.26 17.98 18.44Q17.64 18.62 17.42 18.62ZM38.98 4.78L38.98 4.78Q38.98 6.10 38.32 7.30Q37.66 8.50 36.54 9.40Q35.42 10.30 33.92 10.82Q32.42 11.35 30.74 11.35L30.74 11.35Q30.14 11.35 29.80 11.20Q29.45 11.04 29.02 10.58L29.02 10.58Q27.82 13.20 27.06 15.40Q26.30 17.59 25.87 19.66L25.87 19.66Q24.96 19.44 24.38 18.90Q23.81 18.36 23.33 17.54L23.33 17.54Q23.57 17.09 23.90 16.34Q24.24 15.60 24.72 14.51Q25.20 13.42 25.84 11.89Q26.47 10.37 27.34 8.33L27.34 8.33Q27.72 7.39 28.01 6.70Q28.30 6 28.51 5.39Q28.73 4.78 28.91 4.18Q29.09 3.58 29.28 2.86L29.28 2.86Q28.15 3.22 27.20 3.70Q26.26 4.18 25.63 4.70L25.63 4.70Q25.42 4.56 25.19 4.27Q24.96 3.98 24.77 3.64Q24.58 3.29 24.43 2.93Q24.29 2.57 24.26 2.28L24.26 2.28Q24.96 1.80 25.99 1.39Q27.02 0.98 28.20 0.68Q29.38 0.38 30.64 0.22Q31.90 0.05 33.05 0.05L33.05 0.05Q34.42 0.05 35.52 0.40Q36.62 0.74 37.39 1.37Q38.16 1.99 38.57 2.86Q38.98 3.72 38.98 4.78ZM34.70 1.90L34.70 1.90Q33.79 1.90 32.83 2.04L32.83 2.04L33.12 2.47Q32.88 2.78 32.52 3.41Q32.16 4.03 31.73 4.91Q31.30 5.78 30.78 6.86Q30.26 7.94 29.69 9.14L29.69 9.14Q31.56 9.14 33.10 8.80Q34.63 8.45 35.72 7.84Q36.82 7.22 37.43 6.41Q38.04 5.59 38.04 4.66L38.04 4.66Q38.04 3.41 37.20 2.65Q36.36 1.90 34.70 1.90ZM36.62 18.62L36.62 18.62Q36.24 18.58 35.82 18.30Q35.40 18.02 35.28 17.69L35.28 17.69Q35.28 17.40 35.36 16.94Q35.45 16.49 35.57 16.02Q35.69 15.55 35.81 15.13Q35.93 14.71 35.98 14.50L35.98 14.50Q36.26 14.50 36.71 14.64Q37.15 14.78 37.62 15.04Q38.09 15.29 38.51 15.61Q38.93 15.94 39.14 16.27L39.14 16.27Q38.93 16.75 38.59 17.18Q38.26 17.62 37.88 17.94Q37.51 18.26 37.18 18.44Q36.84 18.62 36.62 18.62ZM58.18 4.78L58.18 4.78Q58.18 6.10 57.52 7.30Q56.86 8.50 55.74 9.40Q54.62 10.30 53.12 10.82Q51.62 11.35 49.94 11.35L49.94 11.35Q49.34 11.35 49.00 11.20Q48.65 11.04 48.22 10.58L48.22 10.58Q47.02 13.20 46.26 15.40Q45.50 17.59 45.07 19.66L45.07 19.66Q44.16 19.44 43.58 18.90Q43.01 18.36 42.53 17.54L42.53 17.54Q42.77 17.09 43.10 16.34Q43.44 15.60 43.92 14.51Q44.40 13.42 45.04 11.89Q45.67 10.37 46.54 8.33L46.54 8.33Q46.92 7.39 47.21 6.70Q47.50 6 47.71 5.39Q47.93 4.78 48.11 4.18Q48.29 3.58 48.48 2.86L48.48 2.86Q47.35 3.22 46.40 3.70Q45.46 4.18 44.83 4.70L44.83 4.70Q44.62 4.56 44.39 4.27Q44.16 3.98 43.97 3.64Q43.78 3.29 43.63 2.93Q43.49 2.57 43.46 2.28L43.46 2.28Q44.16 1.80 45.19 1.39Q46.22 0.98 47.40 0.68Q48.58 0.38 49.84 0.22Q51.10 0.05 52.25 0.05L52.25 0.05Q53.62 0.05 54.72 0.40Q55.82 0.74 56.59 1.37Q57.36 1.99 57.77 2.86Q58.18 3.72 58.18 4.78ZM53.90 1.90L53.90 1.90Q52.99 1.90 52.03 2.04L52.03 2.04L52.32 2.47Q52.08 2.78 51.72 3.41Q51.36 4.03 50.93 4.91Q50.50 5.78 49.98 6.86Q49.46 7.94 48.89 9.14L48.89 9.14Q50.76 9.14 52.30 8.80Q53.83 8.45 54.92 7.84Q56.02 7.22 56.63 6.41Q57.24 5.59 57.24 4.66L57.24 4.66Q57.24 3.41 56.40 2.65Q55.56 1.90 53.90 1.90ZM55.82 18.62L55.82 18.62Q55.44 18.58 55.02 18.30Q54.60 18.02 54.48 17.69L54.48 17.69Q54.48 17.40 54.56 16.94Q54.65 16.49 54.77 16.02Q54.89 15.55 55.01 15.13Q55.13 14.71 55.18 14.50L55.18 14.50Q55.46 14.50 55.91 14.64Q56.35 14.78 56.82 15.04Q57.29 15.29 57.71 15.61Q58.13 15.94 58.34 16.27L58.34 16.27Q58.13 16.75 57.79 17.18Q57.46 17.62 57.08 17.94Q56.71 18.26 56.38 18.44Q56.04 18.62 55.82 18.62Z" transform="translate(22.4, 8.173)"></path></svg>